<svg width="1440" height="960" viewBox="0 0 1440 960" fill="none" xmlns="http://www.w3.org/2000/svg">
<g clip-path="url(#clip0_36_22)">
<path d="M8.8661 -20.8027C8.8661 -20.8027 30.7813 353.794 87.7542 193.336C99.7625 159.516 261.999 -90.5 304.999 193.336M1460.75 947.117C1398.05 822.752 1370.74 913.995 1328.16 822.487M304.999 193.336C181.999 477.61 454.616 665.505 765.165 477.609M304.999 193.336C393.499 373.5 711.999 47 765.165 477.609M765.165 477.609C798 860.5 1346.5 248.5 1328.16 822.487M765.165 477.609C1233.5 100.5 851.5 822.487 1328.16 822.487" stroke="#EDFFA5" stroke-opacity="0.4" stroke-width="100"/>
<path d="M1379.23 1647.97C1379.23 1647.97 1061.77 1698.32 1164.6 1622.45C1186.27 1606.46 1260.39 1532.51 1068.24 1480.75M-138.113 636.408C-5.03186 665.037 -44.1496 698.333 52.0017 716.499M1068.24 1480.75C793.768 1439.52 594.968 1408.34 593.564 1119.98M1068.24 1480.75C958.705 1314.35 915.12 1111.29 593.564 1119.98M593.564 1119.98C42.8384 1089.67 399.942 608.31 52.0017 716.499M593.564 1119.98C638.187 656.49 -26.4988 1081 52.0017 716.499" stroke="#EDFFA5" stroke-opacity="0.4" stroke-width="100"/>
<path d="M956.85 425.15C959.791 443.757 954.167 462.89 941.334 481.596C928.497 500.308 908.477 518.543 882.745 535.287C831.285 568.775 757.146 596.201 672.526 609.574C587.906 622.947 508.923 619.72 449.644 603.733C420.003 595.739 395.335 584.567 377.353 570.725C359.377 556.888 348.128 540.422 345.187 521.815C342.247 503.208 347.87 484.075 360.703 465.369C373.54 446.657 393.561 428.422 419.292 411.678C470.752 378.189 544.891 350.764 629.511 337.391C714.131 324.018 793.115 327.244 852.394 343.232C882.034 351.226 906.702 362.398 924.684 376.239C942.66 390.077 953.909 406.543 956.85 425.15Z" stroke="#222121" stroke-opacity="0.05" stroke-width="2"/>
<path d="M936.467 434.323C938.505 442.355 936.341 451.157 930.467 460.266C924.591 469.377 915.055 478.706 902.543 487.705C877.524 505.699 840.782 522.246 798.247 533.038C755.711 543.829 715.525 546.799 684.954 542.908C669.665 540.963 656.835 537.308 647.326 532.1C637.82 526.893 631.722 520.187 629.684 512.155C627.646 504.123 629.81 495.321 635.684 486.212C641.56 477.101 651.096 467.772 663.608 458.773C688.627 440.779 725.369 424.231 767.904 413.44C810.44 402.648 850.627 399.679 881.197 403.569C896.486 405.515 909.316 409.17 918.825 414.378C928.331 419.584 934.43 426.291 936.467 434.323Z" stroke="#222121" stroke-opacity="0.05" stroke-width="2"/>
<path d="M1136.66 397.533C1144.17 452.738 1105.84 509.137 1037.16 555.67C968.527 602.164 869.865 638.602 757.435 653.904C645.006 669.207 540.194 660.463 461.636 634.002C383.012 607.518 331.002 563.416 323.488 508.21C315.974 453.005 354.306 396.607 422.991 350.073C491.619 303.579 590.282 267.141 702.712 251.839C815.141 236.537 919.953 245.28 998.511 271.741C1077.13 298.225 1129.14 342.327 1136.66 397.533Z" stroke="#222121" stroke-opacity="0.05" stroke-width="2"/>
<path d="M1212.98 307.011C1231.94 378.564 1193.19 458.41 1114.66 529.714C1036.17 600.98 918.144 663.495 779.179 700.308C640.215 737.121 506.718 741.237 403.24 718.176C299.706 695.104 226.513 644.912 207.558 573.359C188.602 501.806 227.348 421.96 305.88 350.656C384.37 279.39 502.396 216.875 641.361 180.062C780.325 143.249 913.822 139.133 1017.3 162.194C1120.83 185.266 1194.03 235.459 1212.98 307.011Z" stroke="#222121" stroke-opacity="0.05" stroke-width="2"/>
<path d="M132 246C115 246 115 246 115 263C115 246 115 246 98 246C115 246 115 246 115 229C115 246 115 246 132 246Z" fill="#222121"/>
<path d="M489 727.5C467.5 727.5 467.5 727.5 467.5 749C467.5 727.5 467.5 727.5 446 727.5C467.5 727.5 467.5 727.5 467.5 706C467.5 727.5 467.5 727.5 489 727.5Z" fill="#222121"/>
<path d="M1181 381C1170 381 1170 381 1170 392C1170 381 1170 381 1159 381C1170 381 1170 381 1170 370C1170 381 1170 381 1181 381Z" fill="#222121"/>
<path d="M1351 122.5C1341.5 122.5 1341.5 122.5 1341.5 132C1341.5 122.5 1341.5 122.5 1332 122.5C1341.5 122.5 1341.5 122.5 1341.5 113C1341.5 122.5 1341.5 122.5 1351 122.5Z" fill="#222121"/>
<path d="M592 87C574.5 87 574.5 87 574.5 103C574.5 87 574.5 87 557 87C574.5 87 574.5 87 574.5 71C574.5 87 574.5 87 592 87Z" fill="#222121"/>
<path d="M956 848.5C940 848.5 940 848.5 940 864C940 848.5 940 848.5 924 848.5C940 848.5 940 848.5 940 833C940 848.5 940 848.5 956 848.5Z" fill="#222121"/>
</g>
<defs>
<clipPath id="clip0_36_22">
<rect width="1440" height="960" fill="white"/>
</clipPath>
</defs>
</svg>
